#Comment line ignore any data following # character 
#Hierarchical Translation and Rotation (.htr) file 
[Header]	
#Header keywords are followed by a single value 
FileType HTR		#Single word string
DataType HTRS		#Translation followed by rotation and scale data
FileVersion 1		#integer
NumSegments 64		#integer
NumFrames 3		#integer
DataFrameRate 30		#integer, data frame rate in this file
EulerRotationOrder ZYX
CalibrationUnits mm
RotationUnits Degrees
GlobalAxisofGravity Y
BoneLengthAxis Y
ScaleFactor 1.00
[SegmentNames&Hierarchy]
#CHILD	PARENT
Pinger_Root GLOBAL
Pelvis Pinger_Root
L_Hip Pelvis
R_Hip Pelvis
Rear_Leg01 Pelvis
Spine1 Pelvis
L_Leg01 L_Hip
L_Leg02 L_Leg01
L_Leg03 L_Leg02
L_Foot L_Leg03
L_Toe1_01 L_Foot
L_Toe2_01 L_Foot
L_Toe3_01 L_Foot
planeAlignerLeft L_Foot
L_Toe1_02 L_Toe1_01
L_Toe1_03 L_Toe1_02
L_Toe2_02 L_Toe2_01
L_Toe2_03 L_Toe2_02
L_Toe3_02 L_Toe3_01
L_Toe3_03 L_Toe3_02
planeLockWeightLeft planeAlignerLeft
R_Leg01 R_Hip
R_Leg02 R_Leg01
R_Leg03 R_Leg02
R_Foot R_Leg03
planeAlignerRight R_Foot
R_Toe1_01 R_Foot
R_Toe2_01 R_Foot
R_Toe3_01 R_Foot
planeLockWeightRight planeAlignerRight
R_Toe1_02 R_Toe1_01
R_Toe1_03 R_Toe1_02
R_Toe2_02 R_Toe2_01
R_Toe2_03 R_Toe2_02
R_Toe3_02 R_Toe3_01
R_Toe3_03 R_Toe3_02
Rear_Leg02 Rear_Leg01
Rear_Leg03 Rear_Leg02
Rear_Leg04 Rear_Leg03
Rear_Foot Rear_Leg04
planeAlignerCenter Rear_Foot
Rear_Toe1_01 Rear_Foot
Rear_Toe2_01 Rear_Foot
Rear_Toe3_01 Rear_Foot
planeLockWeightCenter planeAlignerCenter
Rear_Toe1_02 Rear_Toe1_01
Rear_Toe1_03 Rear_Toe1_02
Rear_Toe2_02 Rear_Toe2_01
Rear_Toe2_03 Rear_Toe2_02
Rear_Toe3_02 Rear_Toe3_01
Rear_Toe3_03 Rear_Toe3_02
Back_Bone Spine1
Head Spine1
Motor_Bone Back_Bone
Ping_Mechanism Back_Bone
BN_LookIK Head
bottomMouth Head
L_Mouth01 Head
L_mouthFront Head
mouthGun Head
R_Mouth01 Head
R_mouthFront Head
TopMouth Head
weapon_bone Head
[BasePosition]
#SegmentName Tx, Ty, Tz, Rx, Ry, Rz, BoneLength
Pinger_Root 0.000000 0.000000 0.000000 -90.000000 0.000000 0.000000 10.000000 
Pelvis 0.000000 0.000000 0.000000 0.000000 0.000000 0.000000 10.000000 
L_Hip 0.000000 0.000000 0.000000 0.000000 0.000000 0.000000 10.000000 
R_Hip 0.000000 0.000000 0.000000 0.000000 0.000000 0.000000 10.000000 
Rear_Leg01 0.000000 0.000000 0.000000 0.000000 0.000000 0.000000 10.000000 
Spine1 0.000000 0.000000 0.000000 0.000000 0.000000 0.000000 10.000000 
L_Leg01 0.000000 0.000000 0.000000 0.000000 0.000000 0.000000 10.000000 
L_Leg02 0.000000 0.000000 0.000000 0.000000 0.000000 0.000000 10.000000 
L_Leg03 0.000000 0.000000 0.000000 0.000000 0.000000 0.000000 10.000000 
L_Foot 0.000000 0.000000 0.000000 0.000000 0.000000 0.000000 10.000000 
L_Toe1_01 0.000000 0.000000 0.000000 0.000000 0.000000 0.000000 10.000000 
L_Toe2_01 0.000000 0.000000 0.000000 0.000000 0.000000 0.000000 10.000000 
L_Toe3_01 0.000000 0.000000 0.000000 0.000000 0.000000 0.000000 10.000000 
planeAlignerLeft 0.000000 0.000000 0.000000 0.000000 0.000000 0.000000 10.000000 
L_Toe1_02 0.000000 0.000000 0.000000 0.000000 0.000000 0.000000 10.000000 
L_Toe1_03 0.000000 0.000000 0.000000 0.000000 0.000000 0.000000 10.000000 
L_Toe2_02 0.000000 0.000000 0.000000 0.000000 0.000000 0.000000 10.000000 
L_Toe2_03 0.000000 0.000000 0.000000 0.000000 0.000000 0.000000 10.000000 
L_Toe3_02 0.000000 0.000000 0.000000 0.000000 0.000000 0.000000 10.000000 
L_Toe3_03 0.000000 0.000000 0.000000 0.000000 0.000000 0.000000 10.000000 
planeLockWeightLeft 0.000000 0.000000 0.000000 0.000000 0.000000 0.000000 10.000000 
R_Leg01 0.000000 0.000000 0.000000 0.000000 0.000000 0.000000 10.000000 
R_Leg02 0.000000 0.000000 0.000000 0.000000 0.000000 0.000000 10.000000 
R_Leg03 0.000000 0.000000 0.000000 0.000000 0.000000 0.000000 10.000000 
R_Foot 0.000000 0.000000 0.000000 0.000000 0.000000 0.000000 10.000000 
planeAlignerRight 0.000000 0.000000 0.000000 0.000000 0.000000 0.000000 10.000000 
R_Toe1_01 0.000000 0.000000 0.000000 0.000000 0.000000 0.000000 10.000000 
R_Toe2_01 0.000000 0.000000 0.000000 0.000000 0.000000 0.000000 10.000000 
R_Toe3_01 0.000000 0.000000 0.000000 0.000000 0.000000 0.000000 10.000000 
planeLockWeightRight 0.000000 0.000000 0.000000 0.000000 0.000000 0.000000 10.000000 
R_Toe1_02 0.000000 0.000000 0.000000 0.000000 0.000000 0.000000 10.000000 
R_Toe1_03 0.000000 0.000000 0.000000 0.000000 0.000000 0.000000 10.000000 
R_Toe2_02 0.000000 0.000000 0.000000 0.000000 0.000000 0.000000 10.000000 
R_Toe2_03 0.000000 0.000000 0.000000 0.000000 0.000000 0.000000 10.000000 
R_Toe3_02 0.000000 0.000000 0.000000 0.000000 0.000000 0.000000 10.000000 
R_Toe3_03 0.000000 0.000000 0.000000 0.000000 0.000000 0.000000 10.000000 
Rear_Leg02 0.000000 0.000000 0.000000 0.000000 0.000000 0.000000 10.000000 
Rear_Leg03 0.000000 0.000000 0.000000 0.000000 0.000000 0.000000 10.000000 
Rear_Leg04 0.000000 0.000000 0.000000 0.000000 0.000000 0.000000 10.000000 
Rear_Foot 0.000000 0.000000 0.000000 0.000000 0.000000 0.000000 10.000000 
planeAlignerCenter 0.000000 0.000000 0.000000 0.000000 0.000000 0.000000 10.000000 
Rear_Toe1_01 0.000000 0.000000 0.000000 0.000000 0.000000 0.000000 10.000000 
Rear_Toe2_01 0.000000 0.000000 0.000000 0.000000 0.000000 0.000000 10.000000 
Rear_Toe3_01 0.000000 0.000000 0.000000 0.000000 0.000000 0.000000 10.000000 
planeLockWeightCenter 0.000000 0.000000 0.000000 0.000000 0.000000 0.000000 10.000000 
Rear_Toe1_02 0.000000 0.000000 0.000000 0.000000 0.000000 0.000000 10.000000 
Rear_Toe1_03 0.000000 0.000000 0.000000 0.000000 0.000000 0.000000 10.000000 
Rear_Toe2_02 0.000000 0.000000 0.000000 0.000000 0.000000 0.000000 10.000000 
Rear_Toe2_03 0.000000 0.000000 0.000000 0.000000 0.000000 0.000000 10.000000 
Rear_Toe3_02 0.000000 0.000000 0.000000 0.000000 0.000000 0.000000 10.000000 
Rear_Toe3_03 0.000000 0.000000 0.000000 0.000000 0.000000 0.000000 10.000000 
Back_Bone 0.000000 0.000000 0.000000 0.000000 0.000000 0.000000 10.000000 
Head 0.000000 0.000000 0.000000 0.000000 0.000000 0.000000 10.000000 
Motor_Bone 0.000000 0.000000 0.000000 0.000000 0.000000 0.000000 10.000000 
Ping_Mechanism 0.000000 0.000000 0.000000 0.000000 0.000000 0.000000 10.000000 
BN_LookIK 0.000000 0.000000 0.000000 0.000000 0.000000 0.000000 10.000000 
bottomMouth 0.000000 0.000000 0.000000 0.000000 0.000000 0.000000 10.000000 
L_Mouth01 0.000000 0.000000 0.000000 0.000000 0.000000 0.000000 10.000000 
L_mouthFront 0.000000 0.000000 0.000000 0.000000 0.000000 0.000000 10.000000 
mouthGun 0.000000 0.000000 0.000000 0.000000 0.000000 0.000000 10.000000 
R_Mouth01 0.000000 0.000000 0.000000 0.000000 0.000000 0.000000 10.000000 
R_mouthFront 0.000000 0.000000 0.000000 0.000000 0.000000 0.000000 10.000000 
TopMouth 0.000000 0.000000 0.000000 0.000000 0.000000 0.000000 10.000000 
weapon_bone 0.000000 0.000000 0.000000 0.000000 0.000000 0.000000 10.000000 
#Beginning of Data. Separated by tabs
#Fr	Tx	Ty	Tz	Rx	Ry	Rz	SF
[Pinger_Root]
53 0.000000 0.000000 0.000000 -0.000075 -0.000000 -0.000020 0.000000
54 0.000000 0.000000 0.000000 -0.000075 -0.000000 -0.000020 0.000000
55 0.000000 0.000000 0.000000 -0.000075 -0.000000 -0.000020 0.000000
[Pelvis]
53 1.045983 1145.901245 3612.303711 -89.984177 -78.155037 89.985344 3789.700439
54 1.163024 1127.952271 3614.161133 -89.981377 -80.318832 89.982536 3786.084961
55 1.287627 1106.157104 3616.174072 -90.000839 -82.945152 90.003174 3781.573730
[L_Hip]
53 5.766392 125.831482 872.656799 -121.855164 -74.309326 30.031721 881.701050
54 5.766392 125.831482 872.656799 -121.855164 -74.309326 30.031721 881.701050
55 5.766392 125.831482 872.656799 -121.855164 -74.309326 30.031721 881.701050
[R_Hip]
53 5.765438 125.836372 -872.654907 -62.006924 72.295998 26.002968 881.699829
54 5.765438 125.836372 -872.654907 -62.006908 72.295975 26.002958 881.699829
55 5.765438 125.836372 -872.654907 -62.006908 72.295975 26.002958 881.699829
[Rear_Leg01]
53 -192.298416 -925.602966 -0.001907 176.316132 -1.748598 -128.526535 945.367432
54 -192.298416 -925.602966 -0.001907 176.278473 -1.766049 -126.189697 945.367432
55 -192.298416 -925.602966 -0.001907 176.234375 -1.778646 -123.323097 945.367432
[Spine1]
53 290.604584 5.007505 0.000477 -0.000119 0.777063 11.425563 290.647736
54 290.604584 5.007505 0.000477 0.001683 0.668885 13.589812 290.647736
55 290.604584 5.007505 0.000477 -0.001138 0.541369 16.213375 290.647736
[L_Leg01]
53 761.932007 -0.002384 -0.069261 69.205612 -44.061516 -69.354988 761.932068
54 761.932007 -0.002384 -0.069261 70.987556 -41.884590 -71.168823 761.932068
55 761.932007 -0.002384 -0.069261 72.943207 -39.182514 -73.161293 761.932068
[L_Leg02]
53 1441.140503 -0.000954 -0.000715 4.729932 0.779954 -120.585297 1441.140503
54 1441.140503 -0.000954 -0.000715 4.560997 0.706772 -118.888367 1441.140503
55 1441.140503 -0.000954 -0.000715 4.348526 0.616802 -116.712433 1441.140503
[L_Leg03]
53 1686.963989 -0.000715 -0.000954 -0.083957 0.047754 132.609634 1686.963989
54 1686.963989 -0.000715 -0.000954 -0.081337 0.045016 132.069672 1686.963989
55 1686.963989 -0.000715 -0.000954 -0.078692 0.042303 131.529678 1686.963989
[L_Foot]
53 3041.570068 -30.715107 11.297464 1.912022 24.644928 44.018192 3041.746094
54 3041.570068 -30.715107 11.297464 1.912504 24.662678 43.142151 3041.746094
55 3041.570068 -30.715107 11.297464 1.912685 24.680424 42.265949 3041.746094
[L_Toe1_01]
53 -188.216690 -224.732346 -21.137953 94.536530 -11.874324 -178.539001 293.899567
54 -188.216690 -224.732346 -21.137953 94.536530 -11.874324 -178.539001 293.899567
55 -188.216690 -224.732346 -21.137953 94.536530 -11.874324 -178.539001 293.899567
[L_Toe2_01]
53 200.746536 -219.926590 148.838394 -89.361343 -33.863483 -48.494923 332.896027
54 200.746536 -219.926590 148.838394 -89.361984 -33.863602 -48.494270 332.896027
55 200.746536 -219.926590 148.838394 -89.362625 -33.863716 -48.493610 332.896027
[L_Toe3_01]
53 188.832520 -219.859131 -191.078659 -97.062477 10.780058 -57.841282 347.140900
54 188.832520 -219.859131 -191.078659 -97.062164 10.779952 -57.840557 347.140900
55 188.832520 -219.859131 -191.078659 -97.061867 10.779843 -57.839832 347.140900
[planeAlignerLeft]
53 0.812531 -811.448792 -0.314951 0.000000 -90.000000 -90.001900 811.449280
54 0.812531 -811.448792 -0.314951 0.000000 -90.000000 -90.001900 811.449280
55 0.812531 -811.448792 -0.314951 0.000000 -90.000000 -90.001900 811.449280
[L_Toe1_02]
53 413.761139 0.000477 0.000000 0.000203 -25.410625 -0.000182 413.761139
54 413.761139 0.000477 0.000000 0.000203 -25.410625 -0.000182 413.761139
55 413.761139 0.000477 0.000000 0.000203 -25.410625 -0.000182 413.761139
[L_Toe1_03]
53 464.317322 0.000358 -0.000089 0.004342 58.635971 0.004342 464.317322
54 464.317322 0.000358 -0.000089 0.004342 58.635971 0.004342 464.317322
55 464.317322 0.000358 -0.000089 0.004342 58.635971 0.004342 464.317322
[L_Toe2_02]
53 342.235809 -0.000477 0.000238 0.001191 -70.156403 0.001191 342.235809
54 342.235809 -0.000477 0.000238 0.001191 -70.156403 0.001191 342.235809
55 342.235809 -0.000477 0.000238 0.001191 -70.156403 0.001191 342.235809
[L_Toe2_03]
53 420.210846 -0.000715 0.000000 0.013353 79.915703 0.013353 420.210846
54 420.210846 -0.000715 0.000000 0.013353 79.915703 0.013353 420.210846
55 420.210846 -0.000715 0.000000 0.013353 79.915703 0.013353 420.210846
[L_Toe3_02]
53 329.270111 0.000954 0.000000 0.001176 -83.130447 0.001176 329.270111
54 329.270111 0.000954 0.000000 0.001176 -83.130447 0.001176 329.270111
55 329.270111 0.000954 0.000000 0.001176 -83.130447 0.001176 329.270111
[L_Toe3_03]
53 439.137451 -0.001907 0.000954 179.990875 65.540901 179.998047 439.137451
54 439.137451 -0.001907 0.000954 179.990875 65.540901 179.998047 439.137451
55 439.137451 -0.001907 0.000954 179.990875 65.540901 179.998047 439.137451
[planeLockWeightLeft]
53 -0.000954 0.000238 -0.000305 -0.011826 -0.004376 0.005620 0.001029
54 -0.000954 0.000238 -0.000305 -0.011826 -0.004376 0.005620 0.001029
55 -0.000954 0.000238 -0.000305 -0.011826 -0.004376 0.005620 0.001029
[R_Leg01]
53 761.455627 -0.001907 -0.000358 98.765511 -31.315065 76.202034 761.455688
54 761.455627 -0.001907 -0.000358 97.605179 -29.365105 77.183205 761.455688
55 761.455627 -0.001907 -0.000358 96.269775 -26.986700 78.285049 761.455688
[R_Leg02]
53 1441.140625 0.000000 -0.000238 -1.197536 -0.568257 -139.659210 1441.140625
54 1441.140625 0.000000 -0.000238 -1.179879 -0.548351 -138.413605 1441.140625
55 1441.140625 0.000000 -0.000238 -1.159689 -0.521958 -136.832367 1441.140625
[R_Leg03]
53 1686.963989 0.000954 0.001431 0.121223 -0.075704 142.737015 1686.963989
54 1686.963989 0.000954 0.001431 0.119380 -0.074282 142.363480 1686.963989
55 1686.963989 0.000954 0.001431 0.117527 -0.072872 141.989929 1686.963989
[R_Foot]
53 3041.560059 -30.531288 -11.204481 -14.969937 -25.233086 55.748657 3041.734131
54 3041.560059 -30.531288 -11.204481 -15.029897 -25.203197 54.820080 3041.734131
55 3041.560059 -30.531288 -11.204481 -15.090363 -25.174179 53.891655 3041.734131
[planeAlignerRight]
53 -0.635147 -812.270569 -0.364304 0.000000 -89.960434 -90.005180 812.270874
54 -0.635147 -812.270569 -0.364304 0.000000 -89.960434 -90.005180 812.270874
55 -0.635147 -812.270569 -0.364304 0.000000 -89.960434 -90.005180 812.270874
[R_Toe1_01]
53 -188.383347 -224.864899 21.052242 58.204994 26.474842 -166.995926 294.101532
54 -188.383347 -224.864899 21.052242 58.205021 26.474892 -166.995880 294.101532
55 -188.383347 -224.864899 21.052242 58.205036 26.474930 -166.995865 294.101532
[R_Toe2_01]
53 200.637817 -220.002121 -148.787384 -55.994591 39.712746 -29.524965 332.857574
54 200.637817 -220.002121 -148.787384 -55.994591 39.712746 -29.524965 332.857574
55 200.637817 -220.002121 -148.787384 -55.994591 39.712746 -29.524965 332.857574
[R_Toe3_01]
53 188.606735 -220.092957 191.126343 -53.843670 11.159615 -73.287277 347.192566
54 188.606735 -220.092957 191.126343 -53.843681 11.159640 -73.287231 347.192566
55 188.606735 -220.092957 191.126343 -53.843678 11.159669 -73.287178 347.192566
[planeLockWeightRight]
53 -0.000477 0.000000 0.000000 -0.011823 -0.004379 -0.000027 0.000477
54 -0.000477 0.000000 0.000000 -0.011823 -0.004379 -0.000027 0.000477
55 -0.000477 0.000000 0.000000 -0.011823 -0.004379 -0.000027 0.000477
[R_Toe1_02]
53 413.762085 0.000477 -0.000119 0.000006 -25.434675 -0.000005 413.762085
54 413.762085 0.000477 -0.000119 0.000006 -25.434675 -0.000005 413.762085
55 413.762085 0.000477 -0.000119 0.000006 -25.434675 -0.000005 413.762085
[R_Toe1_03]
53 464.317810 0.000000 0.001088 0.003184 46.740177 0.003184 464.317810
54 464.317810 0.000000 0.001088 0.003184 46.740120 0.003184 464.317810
55 464.317810 0.000000 0.001088 0.003184 46.740067 0.003184 464.317810
[R_Toe2_02]
53 342.234741 -0.000954 0.000238 0.001235 -53.660015 0.001235 342.234741
54 342.234741 -0.000954 0.000238 0.001235 -53.660015 0.001235 342.234741
55 342.234741 -0.000954 0.000238 0.001235 -53.660015 0.001235 342.234741
[R_Toe2_03]
53 420.210846 0.000715 -0.000268 -0.003602 51.671577 0.000100 420.210846
54 420.210846 0.000715 -0.000268 -0.003602 51.671577 0.000100 420.210846
55 420.210846 0.000715 -0.000268 -0.003602 51.671577 0.000100 420.210846
[R_Toe3_02]
53 329.270355 -0.000477 -0.000954 -0.002373 -66.445053 -0.002373 329.270355
54 329.270355 -0.000477 -0.000954 -0.002373 -66.445053 -0.002373 329.270355
55 329.270355 -0.000477 -0.000954 -0.002373 -66.445053 -0.002373 329.270355
[R_Toe3_03]
53 439.137939 0.000238 0.001431 0.005869 66.928558 0.005869 439.137939
54 439.137939 0.000238 0.001431 0.005869 66.928558 0.005869 439.137939
55 439.137939 0.000238 0.001431 0.005869 66.928558 0.005869 439.137939
[Rear_Leg02]
53 1162.777710 -0.029802 0.005960 -3.017778 7.647584 -91.199333 1162.777710
54 1162.777710 -0.029802 0.005960 -3.255848 7.552250 -92.951378 1162.777710
55 1162.777710 -0.029802 0.005960 -3.538639 7.425001 -95.043549 1162.777710
[Rear_Leg03]
53 607.192505 -0.013351 -0.073195 0.010484 -0.005124 68.447784 607.192505
54 607.192505 -0.013351 -0.073195 0.010461 -0.005170 68.956184 607.192505
55 607.192505 -0.013351 -0.073195 0.010431 -0.005231 69.616905 607.192505
[Rear_Leg04]
53 995.874512 -0.020504 -0.011921 -0.040104 -0.018992 66.679756 995.874573
54 995.874512 -0.020504 -0.011921 -0.040324 -0.018519 68.028816 995.874573
55 995.874512 -0.020504 -0.011921 -0.040588 -0.017955 69.635124 995.874573
[Rear_Foot]
53 3096.176270 -0.067472 -0.041425 93.120872 82.964607 -79.596313 3096.176270
54 3096.176270 -0.067472 -0.041425 93.326790 82.974014 -79.395744 3096.176270
55 3096.176270 -0.067472 -0.041425 93.533257 82.983231 -79.194542 3096.176270
[planeAlignerCenter]
53 0.350077 0.966311 -838.790894 0.000009 0.000003 -179.999985 838.791565
54 0.350077 0.966311 -838.790894 0.000009 0.000003 -179.999985 838.791565
55 0.350077 0.966311 -838.790894 0.000009 0.000003 -179.999985 838.791565
[Rear_Toe1_01]
53 0.653352 83.966492 -371.173737 5.372375 30.466671 103.577843 380.553192
54 0.653352 83.966492 -371.173737 5.372231 30.466772 103.577286 380.553192
55 0.653352 83.966492 -371.173737 5.372083 30.466858 103.576698 380.553192
[Rear_Toe2_01]
53 178.200760 -294.826019 -362.060547 -8.739629 22.953543 -73.372025 499.765686
54 178.200760 -294.826019 -362.060547 -8.739600 22.953592 -73.371536 499.765686
55 178.200760 -294.826019 -362.060547 -8.739570 22.953638 -73.371040 499.765686
[Rear_Toe3_01]
53 -153.359680 -308.780914 -362.060852 3.775403 19.495466 -119.568748 499.952881
54 -153.359680 -308.780914 -362.060852 3.775458 19.495436 -119.568680 499.952881
55 -153.359680 -308.780914 -362.060852 3.775513 19.495413 -119.568626 499.952881
[planeLockWeightCenter]
53 -0.000062 0.000238 0.000000 -0.011814 -0.004373 -0.000015 0.000246
54 -0.000062 0.000238 0.000000 -0.011814 -0.004373 -0.000015 0.000246
55 -0.000062 0.000238 0.000000 -0.011814 -0.004373 -0.000015 0.000246
[Rear_Toe1_02]
53 379.707825 0.194073 0.000477 -0.000340 -33.010918 0.006989 379.707855
54 379.707825 0.194073 0.000477 -0.000340 -33.011822 0.006989 379.707855
55 379.707825 0.194073 0.000477 -0.000340 -33.012714 0.006989 379.707855
[Rear_Toe1_03]
53 500.129700 0.165701 0.000119 -0.004071 60.577023 -0.000456 500.129761
54 500.129700 0.165701 0.000119 -0.004071 60.577160 -0.000456 500.129761
55 500.129700 0.165701 0.000119 -0.004071 60.577358 -0.000456 500.129761
[Rear_Toe2_02]
53 340.494507 0.000238 -0.000954 0.001179 -79.094398 0.001179 340.494507
54 340.494507 0.000238 -0.000954 0.001179 -79.094398 0.001179 340.494507
55 340.494507 0.000238 -0.000954 0.001179 -79.094398 0.001179 340.494507
[Rear_Toe2_03]
53 433.103577 0.000000 0.000238 0.031673 85.752869 0.031673 433.103546
54 433.103577 0.000000 0.000238 0.031673 85.752869 0.031673 433.103546
55 433.103577 0.000000 0.000238 0.031673 85.752869 0.031673 433.103546
[Rear_Toe3_02]
53 340.494141 -0.000358 -0.000477 -0.002471 -50.096046 -0.002471 340.494171
54 340.494141 -0.000358 -0.000477 -0.002471 -50.096046 -0.002471 340.494171
55 340.494141 -0.000358 -0.000477 -0.002471 -50.096046 -0.002471 340.494171
[Rear_Toe3_03]
53 433.103577 0.001431 -0.000238 0.000412 44.444241 -0.003381 433.103546
54 433.103577 0.001431 -0.000238 0.000412 44.444309 -0.003381 433.103546
55 433.103577 0.001431 -0.000238 0.000412 44.444366 -0.003381 433.103546
[Back_Bone]
53 1312.175781 -701.934692 0.000954 0.036368 0.000964 -85.636833 1488.125488
54 1312.175781 -701.934692 0.000954 0.036201 0.000970 -85.637703 1488.125488
55 1312.175781 -701.934692 0.000954 0.036035 0.000977 -85.638596 1488.125488
[Head]
53 1406.159424 809.709290 0.001431 -0.047668 10.658962 40.715218 1622.625488
54 1406.159424 809.709290 0.001431 -0.042158 9.846161 38.688828 1622.625488
55 1406.159424 809.709290 0.001431 -0.036083 8.813266 36.109833 1622.625488
[Motor_Bone]
53 1158.364380 -417.834747 0.000477 -0.000105 0.000046 -105.985291 1231.419434
54 1158.364380 -417.834747 0.000477 -0.000105 0.000046 -105.985291 1231.419434
55 1158.364380 -417.834747 0.000477 -0.000105 0.000046 -105.985291 1231.419434
[Ping_Mechanism]
53 1271.327026 -454.548950 -0.228692 0.000103 -0.000053 82.120995 1350.143433
54 1260.773560 -451.540894 -0.170690 0.000103 -0.000053 82.120995 1339.193359
55 1247.681274 -446.844116 -0.111348 0.000103 -0.000053 82.120995 1325.284180
[BN_LookIK]
53 193.241119 1380.371704 -0.002861 0.000000 89.965736 -31.038179 1393.832153
54 193.241119 1380.371704 -0.002861 0.000000 89.965736 -31.038179 1393.832153
55 193.241119 1380.371704 -0.002861 0.000000 89.965736 -31.038179 1393.832153
[bottomMouth]
53 -435.092926 615.759399 -0.000954 -0.000022 0.000016 73.527184 753.966492
54 -435.092926 615.759399 -0.000954 -0.000022 0.000016 73.527184 753.966492
55 -435.092926 615.759399 -0.000954 -0.000022 0.000016 73.527184 753.966492
[L_Mouth01]
53 554.440979 7.658243 838.222046 150.204178 23.759130 109.605339 1005.027161
54 554.440979 7.658243 838.222046 150.204178 23.759130 109.605339 1005.027161
55 554.440979 7.658243 838.222046 150.204178 23.759130 109.605339 1005.027161
[L_mouthFront]
53 551.629089 934.514771 339.150421 0.000081 2.804060 79.119301 1136.941284
54 551.629089 934.514771 339.150421 0.000081 2.804060 79.119301 1136.941284
55 551.629089 934.514771 339.150421 0.000081 2.804060 79.119301 1136.941284
[mouthGun]
53 55.332661 1627.420898 0.000000 0.000023 0.000009 -11.038128 1628.361328
54 55.332661 1627.420898 0.000000 0.000023 0.000009 -11.038128 1628.361328
55 55.332661 1627.420898 0.000000 0.000023 0.000009 -11.038128 1628.361328
[R_Mouth01]
53 554.442383 7.659197 -838.223938 29.795891 -23.759109 109.605331 1005.029541
54 554.442383 7.659197 -838.223938 29.795891 -23.759109 109.605331 1005.029541
55 554.442383 7.659197 -838.223938 29.795891 -23.759109 109.605331 1005.029541
[R_mouthFront]
53 551.629089 934.514282 -339.151367 0.000029 -2.803930 79.119133 1136.941162
54 551.629089 934.514282 -339.151367 0.000029 -2.803930 79.119133 1136.941162
55 551.629089 934.514282 -339.151367 0.000029 -2.803930 79.119133 1136.941162
[TopMouth]
53 461.269867 -56.106091 -0.008583 -0.000059 -0.000268 92.025169 464.669525
54 461.269867 -56.106091 -0.008583 -0.000059 -0.000268 92.025169 464.669525
55 461.269867 -56.106091 -0.008583 -0.000059 -0.000268 92.025169 464.669525
[weapon_bone]
53 -987.239868 1448.372803 0.001431 0.000000 89.965736 -31.038221 1752.833740
54 -987.239868 1448.372803 0.001431 0.000000 89.965736 -31.038221 1752.833740
55 -987.239868 1448.372803 0.001431 0.000000 89.965736 -31.038221 1752.833740
